<svg xmlns="http://www.w3.org/2000/svg" width="43.75" height="43.75" viewBox="0 0 43.75 43.75">
  <path id="Icon_awesome-whatsapp" data-name="Icon awesome-whatsapp" d="M37.2,9.482A21.687,21.687,0,0,0,3.076,35.645L0,46.875l11.494-3.018a21.614,21.614,0,0,0,10.361,2.637h.01A21.888,21.888,0,0,0,43.75,24.814,21.765,21.765,0,0,0,37.2,9.482ZM21.865,42.842a17.987,17.987,0,0,1-9.18-2.51l-.654-.391L5.215,41.729l1.816-6.65-.43-.684a18.054,18.054,0,1,1,33.486-9.58A18.221,18.221,0,0,1,21.865,42.842Zm9.883-13.5c-.537-.273-3.2-1.582-3.7-1.758s-.859-.273-1.221.273-1.4,1.758-1.719,2.129-.635.41-1.172.137c-3.184-1.592-5.273-2.842-7.373-6.445-.557-.957.557-.889,1.592-2.959a1,1,0,0,0-.049-.947c-.137-.273-1.221-2.939-1.67-4.023-.439-1.055-.889-.908-1.221-.928-.312-.02-.674-.02-1.035-.02a2.007,2.007,0,0,0-1.445.674A6.087,6.087,0,0,0,10.84,20c0,2.666,1.943,5.244,2.207,5.605s3.818,5.83,9.258,8.184c3.438,1.484,4.785,1.611,6.5,1.357,1.045-.156,3.2-1.309,3.652-2.578a4.531,4.531,0,0,0,.313-2.578C32.646,29.746,32.285,29.609,31.748,29.346Z" transform="translate(0 -3.125)"/>
</svg>
